REM DIRINDEX 1\2\4\18,1\2\4\19,1\2\5\20,1\2\5\21,1\2\6\22,1\2\7\23,1\2\8\24,1\2\8\25,1\2\9\26,1\2\10\27,1\3\11\28,1\3\11\29,1\3\11\30,1\3\11\31,1\3\12\32,1\3\12\33,1\3\12\34,1\3\12\35,1\3\13\36,1\3\13\37,1\3\14\38,1\3\14\39,1\3\15\40,1\3\15\41,1\3\15\42,1\3\16\43,1\3\16\44,1\3\17\45,1\3\17\46
REM DIRNAME folder01,folder02,folder03,folder04,folder05,folder06,folder07,folder08,folder09,folder10,folder11,folder12,folder13,folder14,folder15,folder16,folder17,folder18,folder19,folder20,folder21,folder22,folder23,folder24,folder25,folder26,folder27,folder28,folder29,folder30,folder31,folder32,folder33,folder34,folder35,folder36,folder37,folder38,folder39,folder40,folder41,folder42,folder43,folder44,folder45,folder46
TITLE ""
FILE "04.mp3" MP3
  TRACK 01 AUDIO
    TITLE "0:"
    INDEX 01 00:00:00
  TRACK 02 AUDIO
    TITLE "28:cjc023_3996"
    INDEX 01 00:00:15
  TRACK 03 AUDIO
    TITLE "0:"
    INDEX 01 00:01:28
  TRACK 04 AUDIO
    TITLE "29:cjc023_3997"
    INDEX 01 00:01:73
  TRACK 05 AUDIO
    TITLE "0:"
    INDEX 01 00:03:55
  TRACK 06 AUDIO
    TITLE "30:cjc023_3998"
    INDEX 01 00:04:03
  TRACK 07 AUDIO
    TITLE "0:"
    INDEX 01 00:06:00
  TRACK 08 AUDIO
    TITLE "31:cjc023_3999"
    INDEX 01 00:06:20
  TRACK 09 AUDIO
    TITLE "0:"
    INDEX 01 00:08:15
  TRACK 10 AUDIO
    TITLE "28:cjc023_4000"
    INDEX 01 00:09:12
  TRACK 11 AUDIO
    TITLE "0:"
    INDEX 01 00:10:31
  TRACK 12 AUDIO
    TITLE "29:cjc023_4001"
    INDEX 01 00:11:03
  TRACK 13 AUDIO
    TITLE "0:"
    INDEX 01 00:14:37
  TRACK 14 AUDIO
    TITLE "30:cjc023_4002"
    INDEX 01 00:14:60
  TRACK 15 AUDIO
    TITLE "0:"
    INDEX 01 00:17:70
  TRACK 16 AUDIO
    TITLE "31:cjc023_4003"
    INDEX 01 00:18:17
  TRACK 17 AUDIO
    TITLE "0:"
    INDEX 01 00:21:29
  TRACK 18 AUDIO
    TITLE "28:cjc023_4004"
    INDEX 01 00:22:27
  TRACK 19 AUDIO
    TITLE "0:"
    INDEX 01 00:23:38
  TRACK 20 AUDIO
    TITLE "29:cjc023_4005"
    INDEX 01 00:24:14
  TRACK 21 AUDIO
    TITLE "0:"
    INDEX 01 00:26:05
  TRACK 22 AUDIO
    TITLE "30:cjc023_4006"
    INDEX 01 00:26:28
  TRACK 23 AUDIO
    TITLE "0:"
    INDEX 01 00:28:29
  TRACK 24 AUDIO
    TITLE "31:cjc023_4007"
    INDEX 01 00:28:55
  TRACK 25 AUDIO
    TITLE "0:"
    INDEX 01 00:30:57
  TRACK 26 AUDIO
    TITLE "28:cjc023_4008"
    INDEX 01 00:31:57
  TRACK 27 AUDIO
    TITLE "0:"
    INDEX 01 00:32:56
  TRACK 28 AUDIO
    TITLE "29:cjc023_4009"
    INDEX 01 00:33:30
  TRACK 29 AUDIO
    TITLE "0:"
    INDEX 01 00:35:19
  TRACK 30 AUDIO
    TITLE "30:cjc023_4010"
    INDEX 01 00:35:41
  TRACK 31 AUDIO
    TITLE "0:"
    INDEX 01 00:37:22
  TRACK 32 AUDIO
    TITLE "31:cjc023_4011"
    INDEX 01 00:37:44
  TRACK 33 AUDIO
    TITLE "0:"
    INDEX 01 00:39:25
  TRACK 34 AUDIO
    TITLE "28:cjc023_4012"
    INDEX 01 00:40:21
  TRACK 35 AUDIO
    TITLE "0:"
    INDEX 01 00:41:30
  TRACK 36 AUDIO
    TITLE "29:cjc023_4013"
    INDEX 01 00:42:04
  TRACK 37 AUDIO
    TITLE "0:"
    INDEX 01 00:44:03
  TRACK 38 AUDIO
    TITLE "30:cjc023_4014"
    INDEX 01 00:44:30
  TRACK 39 AUDIO
    TITLE "0:"
    INDEX 01 00:46:21
  TRACK 40 AUDIO
    TITLE "31:cjc023_4015"
    INDEX 01 00:46:45
  TRACK 41 AUDIO
    TITLE "0:"
    INDEX 01 00:48:36
  TRACK 42 AUDIO
    TITLE "28:cjc023_4016"
    INDEX 01 00:49:33
  TRACK 43 AUDIO
    TITLE "0:"
    INDEX 01 00:50:66
  TRACK 44 AUDIO
    TITLE "29:cjc023_4017"
    INDEX 01 00:51:38
  TRACK 45 AUDIO
    TITLE "0:"
    INDEX 01 00:55:65
  TRACK 46 AUDIO
    TITLE "30:cjc023_4018"
    INDEX 01 00:56:12
  TRACK 47 AUDIO
    TITLE "0:"
    INDEX 01 00:59:38
  TRACK 48 AUDIO
    TITLE "31:cjc023_4019"
    INDEX 01 00:59:61
  TRACK 49 AUDIO
    TITLE "0:"
    INDEX 01 01:03:10
  TRACK 50 AUDIO
    TITLE "28:cjc023_4020"
    INDEX 01 01:04:09
  TRACK 51 AUDIO
    TITLE "0:"
    INDEX 01 01:05:32
  TRACK 52 AUDIO
    TITLE "29:cjc023_4021"
    INDEX 01 01:06:02
  TRACK 53 AUDIO
    TITLE "0:"
    INDEX 01 01:08:21
  TRACK 54 AUDIO
    TITLE "30:cjc023_4022"
    INDEX 01 01:08:42
  TRACK 55 AUDIO
    TITLE "0:"
    INDEX 01 01:10:31
  TRACK 56 AUDIO
    TITLE "31:cjc023_4023"
    INDEX 01 01:10:53
  TRACK 57 AUDIO
    TITLE "0:"
    INDEX 01 01:12:42
  TRACK 58 AUDIO
    TITLE "28:cjc023_4024"
    INDEX 01 01:13:38
  TRACK 59 AUDIO
    TITLE "0:"
    INDEX 01 01:14:61
  TRACK 60 AUDIO
    TITLE "29:cjc023_4025"
    INDEX 01 01:15:35
  TRACK 61 AUDIO
    TITLE "0:"
    INDEX 01 01:18:23
  TRACK 62 AUDIO
    TITLE "30:cjc023_4026"
    INDEX 01 01:18:45
  TRACK 63 AUDIO
    TITLE "0:"
    INDEX 01 01:21:20
  TRACK 64 AUDIO
    TITLE "31:cjc023_4027"
    INDEX 01 01:21:41
  TRACK 65 AUDIO
    TITLE "0:"
    INDEX 01 01:24:14
  TRACK 66 AUDIO
    TITLE "28:cjc023_4028"
    INDEX 01 01:25:09
  TRACK 67 AUDIO
    TITLE "0:"
    INDEX 01 01:26:38
  TRACK 68 AUDIO
    TITLE "29:cjc023_4029"
    INDEX 01 01:27:12
  TRACK 69 AUDIO
    TITLE "0:"
    INDEX 01 01:29:17
  TRACK 70 AUDIO
    TITLE "30:cjc023_4030"
    INDEX 01 01:29:39
  TRACK 71 AUDIO
    TITLE "0:"
    INDEX 01 01:32:23
  TRACK 72 AUDIO
    TITLE "31:cjc023_4031"
    INDEX 01 01:32:45
  TRACK 73 AUDIO
    TITLE "0:"
    INDEX 01 01:35:29
  TRACK 74 AUDIO
    TITLE "28:cjc023_4032"
    INDEX 01 01:36:27
  TRACK 75 AUDIO
    TITLE "0:"
    INDEX 01 01:37:58
  TRACK 76 AUDIO
    TITLE "29:cjc023_4033"
    INDEX 01 01:38:32
  TRACK 77 AUDIO
    TITLE "0:"
    INDEX 01 01:41:57
  TRACK 78 AUDIO
    TITLE "30:cjc023_4034"
    INDEX 01 01:42:08
  TRACK 79 AUDIO
    TITLE "0:"
    INDEX 01 01:45:22
  TRACK 80 AUDIO
    TITLE "31:cjc023_4035"
    INDEX 01 01:45:47
  TRACK 81 AUDIO
    TITLE "0:"
    INDEX 01 01:48:61
  TRACK 82 AUDIO
    TITLE "28:cjc023_4036"
    INDEX 01 01:49:55
  TRACK 83 AUDIO
    TITLE "0:"
    INDEX 01 01:50:72
  TRACK 84 AUDIO
    TITLE "29:cjc023_4037"
    INDEX 01 01:51:44
  TRACK 85 AUDIO
    TITLE "0:"
    INDEX 01 01:53:21
  TRACK 86 AUDIO
    TITLE "30:cjc023_4038"
    INDEX 01 01:53:45
  TRACK 87 AUDIO
    TITLE "0:"
    INDEX 01 01:55:30
  TRACK 88 AUDIO
    TITLE "31:cjc023_4039"
    INDEX 01 01:55:52
  TRACK 89 AUDIO
    TITLE "0:"
    INDEX 01 01:57:39
  TRACK 90 AUDIO
    TITLE "28:cjc023_4040"
    INDEX 01 01:58:34
  TRACK 91 AUDIO
    TITLE "0:"
    INDEX 01 01:59:67
  TRACK 92 AUDIO
    TITLE "29:cjc023_4041"
    INDEX 01 02:00:37
  TRACK 93 AUDIO
    TITLE "0:"
    INDEX 01 02:02:32
  TRACK 94 AUDIO
    TITLE "30:cjc023_4042"
    INDEX 01 02:02:52
  TRACK 95 AUDIO
    TITLE "0:"
    INDEX 01 02:04:47
  TRACK 96 AUDIO
    TITLE "31:cjc023_4043"
    INDEX 01 02:04:68
  TRACK 97 AUDIO
    TITLE "0:"
    INDEX 01 02:06:61
  TRACK 98 AUDIO
    TITLE "28:cjc023_4044"
    INDEX 01 02:07:57
  TRACK 99 AUDIO
    TITLE "0:"
    INDEX 01 02:08:64
  TRACK 100 AUDIO
    TITLE "29:cjc023_4045"
    INDEX 01 02:09:36
  TRACK 101 AUDIO
    TITLE "0:"
    INDEX 01 02:11:02
  TRACK 102 AUDIO
    TITLE "30:cjc023_4046"
    INDEX 01 02:11:25
  TRACK 103 AUDIO
    TITLE "0:"
    INDEX 01 02:13:01
  TRACK 104 AUDIO
    TITLE "31:cjc023_4047"
    INDEX 01 02:13:22
  TRACK 105 AUDIO
    TITLE "0:"
    INDEX 01 02:15:00
  TRACK 106 AUDIO
    TITLE "28:cjc023_4048"
    INDEX 01 02:15:70
  TRACK 107 AUDIO
    TITLE "0:"
    INDEX 01 02:17:00
  TRACK 108 AUDIO
    TITLE "29:cjc023_4049"
    INDEX 01 02:17:53
  TRACK 109 AUDIO
    TITLE "0:"
    INDEX 01 02:19:48
  TRACK 110 AUDIO
    TITLE "30:cjc023_4050"
    INDEX 01 02:19:72
  TRACK 111 AUDIO
    TITLE "0:"
    INDEX 01 02:21:49
  TRACK 112 AUDIO
    TITLE "31:cjc023_4051"
    INDEX 01 02:21:71
  TRACK 113 AUDIO
    TITLE "0:"
    INDEX 01 02:23:48
  TRACK 114 AUDIO
    TITLE "28:cjc023_4052"
    INDEX 01 02:24:42
  TRACK 115 AUDIO
    TITLE "0:"
    INDEX 01 02:25:53
  TRACK 116 AUDIO
    TITLE "29:cjc023_4053"
    INDEX 01 02:26:29
  TRACK 117 AUDIO
    TITLE "0:"
    INDEX 01 02:29:21
  TRACK 118 AUDIO
    TITLE "30:cjc023_4054"
    INDEX 01 02:29:43
  TRACK 119 AUDIO
    TITLE "0:"
    INDEX 01 02:32:29
  TRACK 120 AUDIO
    TITLE "31:cjc023_4055"
    INDEX 01 02:32:51
  TRACK 121 AUDIO
    TITLE "0:"
    INDEX 01 02:35:38
  TRACK 122 AUDIO
    TITLE "28:cjc023_4056"
    INDEX 01 02:36:33
  TRACK 123 AUDIO
    TITLE "0:"
    INDEX 01 02:37:48
  TRACK 124 AUDIO
    TITLE "29:cjc023_4057"
    INDEX 01 02:38:18
  TRACK 125 AUDIO
    TITLE "0:"
    INDEX 01 02:39:67
  TRACK 126 AUDIO
    TITLE "30:cjc023_4058"
    INDEX 01 02:40:15
  TRACK 127 AUDIO
    TITLE "0:"
    INDEX 01 02:41:68
  TRACK 128 AUDIO
    TITLE "31:cjc023_4059"
    INDEX 01 02:42:14
  TRACK 129 AUDIO
    TITLE "0:"
    INDEX 01 02:43:70
  TRACK 130 AUDIO
    TITLE "28:cjc023_4060"
    INDEX 01 02:44:66
  TRACK 131 AUDIO
    TITLE "0:"
    INDEX 01 02:46:18
  TRACK 132 AUDIO
    TITLE "29:cjc023_4061"
    INDEX 01 02:46:67
  TRACK 133 AUDIO
    TITLE "0:"
    INDEX 01 02:49:36
  TRACK 134 AUDIO
    TITLE "30:cjc023_4062"
    INDEX 01 02:49:57
  TRACK 135 AUDIO
    TITLE "0:"
    INDEX 01 02:52:03
  TRACK 136 AUDIO
    TITLE "31:cjc023_4063"
    INDEX 01 02:52:24
  TRACK 137 AUDIO
    TITLE "0:"
    INDEX 01 02:54:45
  TRACK 138 AUDIO
    TITLE "28:cjc023_4064"
    INDEX 01 02:55:42
  TRACK 139 AUDIO
    TITLE "0:"
    INDEX 01 02:56:71
  TRACK 140 AUDIO
    TITLE "29:cjc023_4065"
    INDEX 01 02:57:47
  TRACK 141 AUDIO
    TITLE "0:"
    INDEX 01 02:59:15
  TRACK 142 AUDIO
    TITLE "30:cjc023_4066"
    INDEX 01 02:59:38
  TRACK 143 AUDIO
    TITLE "0:"
    INDEX 01 03:01:55
  TRACK 144 AUDIO
    TITLE "31:cjc023_4067"
    INDEX 01 03:01:74
  TRACK 145 AUDIO
    TITLE "0:"
    INDEX 01 03:04:16
  TRACK 146 AUDIO
    TITLE "28:cjc023_4068"
    INDEX 01 03:05:13
  TRACK 147 AUDIO
    TITLE "0:"
    INDEX 01 03:06:24
  TRACK 148 AUDIO
    TITLE "29:cjc023_4069"
    INDEX 01 03:06:71
  TRACK 149 AUDIO
    TITLE "0:"
    INDEX 01 03:09:29
  TRACK 150 AUDIO
    TITLE "30:cjc023_4070"
    INDEX 01 03:09:56
  TRACK 151 AUDIO
    TITLE "0:"
    INDEX 01 03:11:65
  TRACK 152 AUDIO
    TITLE "31:cjc023_4071"
    INDEX 01 03:12:13
  TRACK 153 AUDIO
    TITLE "0:"
    INDEX 01 03:14:24
  TRACK 154 AUDIO
    TITLE "28:cjc023_4072"
    INDEX 01 03:15:25
  TRACK 155 AUDIO
    TITLE "0:"
    INDEX 01 03:16:40
  TRACK 156 AUDIO
    TITLE "29:cjc023_4073"
    INDEX 01 03:17:10
  TRACK 157 AUDIO
    TITLE "0:"
    INDEX 01 03:19:02
  TRACK 158 AUDIO
    TITLE "30:cjc023_4074"
    INDEX 01 03:19:21
  TRACK 159 AUDIO
    TITLE "0:"
    INDEX 01 03:21:55
  TRACK 160 AUDIO
    TITLE "31:cjc023_4075"
    INDEX 01 03:22:02
  TRACK 161 AUDIO
    TITLE "0:"
    INDEX 01 03:24:38
  TRACK 162 AUDIO
    TITLE "28:cjc023_4076"
    INDEX 01 03:25:33
  TRACK 163 AUDIO
    TITLE "0:"
    INDEX 01 03:26:68
  TRACK 164 AUDIO
    TITLE "29:cjc023_4077"
    INDEX 01 03:27:40
  TRACK 165 AUDIO
    TITLE "0:"
    INDEX 01 03:29:47
  TRACK 166 AUDIO
    TITLE "30:cjc023_4078"
    INDEX 01 03:29:69
  TRACK 167 AUDIO
    TITLE "0:"
    INDEX 01 03:31:60
  TRACK 168 AUDIO
    TITLE "31:cjc023_4079"
    INDEX 01 03:32:08
  TRACK 169 AUDIO
    TITLE "0:"
    INDEX 01 03:33:74
  TRACK 170 AUDIO
    TITLE "28:cjc023_4080"
    INDEX 01 03:34:70
  TRACK 171 AUDIO
    TITLE "0:"
    INDEX 01 03:36:06
  TRACK 172 AUDIO
    TITLE "29:cjc023_4081"
    INDEX 01 03:36:53
  TRACK 173 AUDIO
    TITLE "0:"
    INDEX 01 03:39:22
  TRACK 174 AUDIO
    TITLE "30:cjc023_4082"
    INDEX 01 03:39:45
  TRACK 175 AUDIO
    TITLE "0:"
    INDEX 01 03:41:60
  TRACK 176 AUDIO
    TITLE "31:cjc023_4083"
    INDEX 01 03:42:06
  TRACK 177 AUDIO
    TITLE "0:"
    INDEX 01 03:44:21
  TRACK 178 AUDIO
    TITLE "28:cjc023_4084"
    INDEX 01 03:45:19
  TRACK 179 AUDIO
    TITLE "0:"
    INDEX 01 03:46:30
  TRACK 180 AUDIO
    TITLE "29:cjc023_4085"
    INDEX 01 03:46:73
  TRACK 181 AUDIO
    TITLE "0:"
    INDEX 01 03:49:61
  TRACK 182 AUDIO
    TITLE "30:cjc023_4086"
    INDEX 01 03:50:10
  TRACK 183 AUDIO
    TITLE "0:"
    INDEX 01 03:52:64
  TRACK 184 AUDIO
    TITLE "31:cjc023_4087"
    INDEX 01 03:53:12
  TRACK 185 AUDIO
    TITLE "0:"
    INDEX 01 03:55:68
  TRACK 186 AUDIO
    TITLE "28:cjc023_4088"
    INDEX 01 03:56:65
  TRACK 187 AUDIO
    TITLE "0:"
    INDEX 01 03:58:06
  TRACK 188 AUDIO
    TITLE "29:cjc023_4089"
    INDEX 01 03:58:51
  TRACK 189 AUDIO
    TITLE "0:"
    INDEX 01 04:02:03
  TRACK 190 AUDIO
    TITLE "30:cjc023_4090"
    INDEX 01 04:02:25
  TRACK 191 AUDIO
    TITLE "0:"
    INDEX 01 04:05:15
  TRACK 192 AUDIO
    TITLE "31:cjc023_4091"
    INDEX 01 04:05:41
  TRACK 193 AUDIO
    TITLE "0:"
    INDEX 01 04:08:29
  TRACK 194 AUDIO
    TITLE "28:cjc023_4092"
    INDEX 01 04:09:31
  TRACK 195 AUDIO
    TITLE "0:"
    INDEX 01 04:10:54
  TRACK 196 AUDIO
    TITLE "29:cjc023_4093"
    INDEX 01 04:11:28
  TRACK 197 AUDIO
    TITLE "0:"
    INDEX 01 04:13:70
  TRACK 198 AUDIO
    TITLE "30:cjc023_4094"
    INDEX 01 04:14:18
  TRACK 199 AUDIO
    TITLE "0:"
    INDEX 01 04:16:60
  TRACK 200 AUDIO
    TITLE "31:cjc023_4095"
    INDEX 01 04:17:07
  TRACK 201 AUDIO
    TITLE "0:"
    INDEX 01 04:19:51
  TRACK 202 AUDIO
    TITLE "28:cjc023_4096"
    INDEX 01 04:20:48
  TRACK 203 AUDIO
    TITLE "0:"
    INDEX 01 04:21:71
  TRACK 204 AUDIO
    TITLE "29:cjc023_4097"
    INDEX 01 04:22:43
  TRACK 205 AUDIO
    TITLE "0:"
    INDEX 01 04:24:34
  TRACK 206 AUDIO
    TITLE "30:cjc023_4098"
    INDEX 01 04:24:56
  TRACK 207 AUDIO
    TITLE "0:"
    INDEX 01 04:26:74
  TRACK 208 AUDIO
    TITLE "31:cjc023_4099"
    INDEX 01 04:27:23
  TRACK 209 AUDIO
    TITLE "0:"
    INDEX 01 04:29:43
  TRACK 210 AUDIO
    TITLE "28:cjc023_4100"
    INDEX 01 04:30:45
  TRACK 211 AUDIO
    TITLE "0:"
    INDEX 01 04:31:52
  TRACK 212 AUDIO
    TITLE "29:cjc023_4101"
    INDEX 01 04:32:26
  TRACK 213 AUDIO
    TITLE "0:"
    INDEX 01 04:34:23
  TRACK 214 AUDIO
    TITLE "30:cjc023_4102"
    INDEX 01 04:34:54
  TRACK 215 AUDIO
    TITLE "0:"
    INDEX 01 04:36:22
  TRACK 216 AUDIO
    TITLE "31:cjc023_4103"
    INDEX 01 04:36:53
  TRACK 217 AUDIO
    TITLE "0:"
    INDEX 01 04:38:21
  TRACK 218 AUDIO
    TITLE "28:cjc023_4104"
    INDEX 01 04:39:22
  TRACK 219 AUDIO
    TITLE "0:"
    INDEX 01 04:40:37
  TRACK 220 AUDIO
    TITLE "29:cjc023_4105"
    INDEX 01 04:41:07
  TRACK 221 AUDIO
    TITLE "0:"
    INDEX 01 04:42:44
  TRACK 222 AUDIO
    TITLE "30:cjc023_4106"
    INDEX 01 04:42:66
  TRACK 223 AUDIO
    TITLE "0:"
    INDEX 01 04:44:57
  TRACK 224 AUDIO
    TITLE "31:cjc023_4107"
    INDEX 01 04:45:03
  TRACK 225 AUDIO
    TITLE "0:"
    INDEX 01 04:46:71
  TRACK 226 AUDIO
    TITLE "28:cjc023_4108"
    INDEX 01 04:47:65
  TRACK 227 AUDIO
    TITLE "0:"
    INDEX 01 04:49:03
  TRACK 228 AUDIO
    TITLE "29:cjc023_4109"
    INDEX 01 04:49:50
  TRACK 229 AUDIO
    TITLE "0:"
    INDEX 01 04:52:62
  TRACK 230 AUDIO
    TITLE "30:cjc023_4110"
    INDEX 01 04:53:10
  TRACK 231 AUDIO
    TITLE "0:"
    INDEX 01 04:56:13
  TRACK 232 AUDIO
    TITLE "31:cjc023_4111"
    INDEX 01 04:56:36
  TRACK 233 AUDIO
    TITLE "0:"
    INDEX 01 04:59:39
  TRACK 234 AUDIO
    TITLE "28:cjc023_4112"
    INDEX 01 05:00:38
  TRACK 235 AUDIO
    TITLE "0:"
    INDEX 01 05:01:57
  TRACK 236 AUDIO
    TITLE "29:cjc023_4113"
    INDEX 01 05:02:27
  TRACK 237 AUDIO
    TITLE "0:"
    INDEX 01 05:04:26
  TRACK 238 AUDIO
    TITLE "30:cjc023_4114"
    INDEX 01 05:04:46
  TRACK 239 AUDIO
    TITLE "0:"
    INDEX 01 05:06:56
  TRACK 240 AUDIO
    TITLE "31:cjc023_4115"
    INDEX 01 05:07:03
  TRACK 241 AUDIO
    TITLE "0:"
    INDEX 01 05:09:13
  TRACK 242 AUDIO
    TITLE "28:cjc023_4116"
    INDEX 01 05:10:11
  TRACK 243 AUDIO
    TITLE "0:"
    INDEX 01 05:11:22
  TRACK 244 AUDIO
    TITLE "29:cjc023_4117"
    INDEX 01 05:11:71
  TRACK 245 AUDIO
    TITLE "0:"
    INDEX 01 05:15:39
  TRACK 246 AUDIO
    TITLE "30:cjc023_4118"
    INDEX 01 05:15:59
  TRACK 247 AUDIO
    TITLE "0:"
    INDEX 01 05:18:61
  TRACK 248 AUDIO
    TITLE "31:cjc023_4119"
    INDEX 01 05:19:06
  TRACK 249 AUDIO
    TITLE "0:"
    INDEX 01 05:22:06
  TRACK 250 AUDIO
    TITLE "28:cjc023_4120"
    INDEX 01 05:23:00
  TRACK 251 AUDIO
    TITLE "0:"
    INDEX 01 05:24:33
  TRACK 252 AUDIO
    TITLE "29:cjc023_4121"
    INDEX 01 05:25:03
  TRACK 253 AUDIO
    TITLE "0:"
    INDEX 01 05:27:43
  TRACK 254 AUDIO
    TITLE "30:cjc023_4122"
    INDEX 01 05:27:62
  TRACK 255 AUDIO
    TITLE "0:"
    INDEX 01 05:30:21
  TRACK 256 AUDIO
    TITLE "31:cjc023_4123"
    INDEX 01 05:30:47
  TRACK 257 AUDIO
    TITLE "0:"
    INDEX 01 05:33:02
  TRACK 258 AUDIO
    TITLE "28:cjc023_4124"
    INDEX 01 05:33:73
  TRACK 259 AUDIO
    TITLE "0:"
    INDEX 01 05:35:27
  TRACK 260 AUDIO
    TITLE "29:cjc023_4125"
    INDEX 01 05:35:74
  TRACK 261 AUDIO
    TITLE "0:"
    INDEX 01 05:37:57
  TRACK 262 AUDIO
    TITLE "30:cjc023_4126"
    INDEX 01 05:38:07
  TRACK 263 AUDIO
    TITLE "0:"
    INDEX 01 05:40:16
  TRACK 264 AUDIO
    TITLE "31:cjc023_4127"
    INDEX 01 05:40:41
  TRACK 265 AUDIO
    TITLE "0:"
    INDEX 01 05:42:52
  TRACK 266 AUDIO
    TITLE "28:cjc023_4128"
    INDEX 01 05:43:48
  TRACK 267 AUDIO
    TITLE "0:"
    INDEX 01 05:44:51
  TRACK 268 AUDIO
    TITLE "29:cjc023_4129"
    INDEX 01 05:45:21
  TRACK 269 AUDIO
    TITLE "0:"
    INDEX 01 05:47:06
  TRACK 270 AUDIO
    TITLE "30:cjc023_4130"
    INDEX 01 05:47:28
  TRACK 271 AUDIO
    TITLE "0:"
    INDEX 01 05:49:17
  TRACK 272 AUDIO
    TITLE "31:cjc023_4131"
    INDEX 01 05:49:38
  TRACK 273 AUDIO
    TITLE "0:"
    INDEX 01 05:51:27
  TRACK 274 AUDIO
    TITLE "28:cjc023_4132"
    INDEX 01 05:52:23
  TRACK 275 AUDIO
    TITLE "0:"
    INDEX 01 05:53:36
  TRACK 276 AUDIO
    TITLE "29:cjc023_4133"
    INDEX 01 05:54:08
  TRACK 277 AUDIO
    TITLE "0:"
    INDEX 01 05:56:13
  TRACK 278 AUDIO
    TITLE "30:cjc023_4134"
    INDEX 01 05:56:36
  TRACK 279 AUDIO
    TITLE "0:"
    INDEX 01 05:57:73
  TRACK 280 AUDIO
    TITLE "31:cjc023_4135"
    INDEX 01 05:58:26
  TRACK 281 AUDIO
    TITLE "0:"
    INDEX 01 05:59:64
  TRACK 282 AUDIO
    TITLE "28:cjc023_4136"
    INDEX 01 06:00:66
  TRACK 283 AUDIO
    TITLE "0:"
    INDEX 01 06:01:71
  TRACK 284 AUDIO
    TITLE "29:cjc023_4137"
    INDEX 01 06:02:43
  TRACK 285 AUDIO
    TITLE "0:"
    INDEX 01 06:05:22
  TRACK 286 AUDIO
    TITLE "30:cjc023_4138"
    INDEX 01 06:05:45
  TRACK 287 AUDIO
    TITLE "0:"
    INDEX 01 06:07:62
  TRACK 288 AUDIO
    TITLE "31:cjc023_4139"
    INDEX 01 06:08:08
  TRACK 289 AUDIO
    TITLE "0:"
    INDEX 01 06:10:25
  TRACK 290 AUDIO
    TITLE "28:cjc023_4140"
    INDEX 01 06:11:20
  TRACK 291 AUDIO
    TITLE "0:"
    INDEX 01 06:12:16
  TRACK 292 AUDIO
    TITLE "29:cjc023_4141"
    INDEX 01 06:12:61
  TRACK 293 AUDIO
    TITLE "0:"
    INDEX 01 06:15:22
  TRACK 294 AUDIO
    TITLE "30:cjc023_4142"
    INDEX 01 06:15:44
  TRACK 295 AUDIO
    TITLE "0:"
    INDEX 01 06:17:46
  TRACK 296 AUDIO
    TITLE "31:cjc023_4143"
    INDEX 01 06:17:68
  TRACK 297 AUDIO
    TITLE "0:"
    INDEX 01 06:19:71
  TRACK 298 AUDIO
    TITLE "28:cjc023_4144"
    INDEX 01 06:20:68
  TRACK 299 AUDIO
    TITLE "0:"
    INDEX 01 06:22:05
  TRACK 300 AUDIO
    TITLE "29:cjc023_4145"
    INDEX 01 06:22:50
  TRACK 301 AUDIO
    TITLE "0:"
    INDEX 01 06:25:11
  TRACK 302 AUDIO
    TITLE "30:cjc023_4146"
    INDEX 01 06:25:30
  TRACK 303 AUDIO
    TITLE "0:"
    INDEX 01 06:28:15
  TRACK 304 AUDIO
    TITLE "31:cjc023_4147"
    INDEX 01 06:28:35
  TRACK 305 AUDIO
    TITLE "0:"
    INDEX 01 06:31:19
  TRACK 306 AUDIO
    TITLE "28:cjc023_4148"
    INDEX 01 06:32:15
  TRACK 307 AUDIO
    TITLE "0:"
    INDEX 01 06:33:28
  TRACK 308 AUDIO
    TITLE "29:cjc023_4149"
    INDEX 01 06:33:73
  TRACK 309 AUDIO
    TITLE "0:"
    INDEX 01 06:36:01
  TRACK 310 AUDIO
    TITLE "30:cjc023_4150"
    INDEX 01 06:36:22
  TRACK 311 AUDIO
    TITLE "0:"
    INDEX 01 06:38:13
  TRACK 312 AUDIO
    TITLE "31:cjc023_4151"
    INDEX 01 06:38:33
  TRACK 313 AUDIO
    TITLE "0:"
    INDEX 01 06:40:24
  TRACK 314 AUDIO
    TITLE "28:cjc023_4152"
    INDEX 01 06:41:18
  TRACK 315 AUDIO
    TITLE "0:"
    INDEX 01 06:42:27
  TRACK 316 AUDIO
    TITLE "29:cjc023_4153"
    INDEX 01 06:42:70
  TRACK 317 AUDIO
    TITLE "0:"
    INDEX 01 06:46:58
  TRACK 318 AUDIO
    TITLE "30:cjc023_4154"
    INDEX 01 06:47:04
  TRACK 319 AUDIO
    TITLE "0:"
    INDEX 01 06:49:27
  TRACK 320 AUDIO
    TITLE "31:cjc023_4155"
    INDEX 01 06:49:48
  TRACK 321 AUDIO
    TITLE "0:"
    INDEX 01 06:51:71
  TRACK 322 AUDIO
    TITLE "28:cjc023_4156"
    INDEX 01 06:52:64
  TRACK 323 AUDIO
    TITLE "0:"
    INDEX 01 06:54:03
  TRACK 324 AUDIO
    TITLE "29:cjc023_4157"
    INDEX 01 06:54:52
  TRACK 325 AUDIO
    TITLE "0:"
    INDEX 01 06:59:33
  TRACK 326 AUDIO
    TITLE "30:cjc023_4158"
    INDEX 01 06:59:55
  TRACK 327 AUDIO
    TITLE "0:"
    INDEX 01 07:03:66
  TRACK 328 AUDIO
    TITLE "31:cjc023_4159"
    INDEX 01 07:04:13
  TRACK 329 AUDIO
    TITLE "0:"
    INDEX 01 07:08:24
  TRACK 330 AUDIO
    TITLE "28:cjc023_4160"
    INDEX 01 07:09:20
  TRACK 331 AUDIO
    TITLE "0:"
    INDEX 01 07:10:45
  TRACK 332 AUDIO
    TITLE "29:cjc023_4161"
    INDEX 01 07:11:17
  TRACK 333 AUDIO
    TITLE "0:"
    INDEX 01 07:13:69
  TRACK 334 AUDIO
    TITLE "30:cjc023_4162"
    INDEX 01 07:14:15
  TRACK 335 AUDIO
    TITLE "0:"
    INDEX 01 07:16:59
  TRACK 336 AUDIO
    TITLE "31:cjc023_4163"
    INDEX 01 07:17:06
  TRACK 337 AUDIO
    TITLE "0:"
    INDEX 01 07:19:48
  TRACK 338 AUDIO
    TITLE "28:cjc023_4164"
    INDEX 01 07:20:47
  TRACK 339 AUDIO
    TITLE "0:"
    INDEX 01 07:21:60
  TRACK 340 AUDIO
    TITLE "29:cjc023_4165"
    INDEX 01 07:22:34
  TRACK 341 AUDIO
    TITLE "0:"
    INDEX 01 07:24:27
  TRACK 342 AUDIO
    TITLE "30:cjc023_4166"
    INDEX 01 07:24:49
  TRACK 343 AUDIO
    TITLE "0:"
    INDEX 01 07:26:42
  TRACK 344 AUDIO
    TITLE "31:cjc023_4167"
    INDEX 01 07:26:63
  TRACK 345 AUDIO
    TITLE "0:"
    INDEX 01 07:28:56
  TRACK 346 AUDIO
    TITLE "28:cjc023_4168"
    INDEX 01 07:29:56
  TRACK 347 AUDIO
    TITLE "0:"
    INDEX 01 07:31:04
  TRACK 348 AUDIO
    TITLE "29:cjc023_4169"
    INDEX 01 07:31:51
  TRACK 349 AUDIO
    TITLE "0:"
    INDEX 01 07:34:02
  TRACK 350 AUDIO
    TITLE "30:cjc023_4170"
    INDEX 01 07:34:26
  TRACK 351 AUDIO
    TITLE "0:"
    INDEX 01 07:36:64
  TRACK 352 AUDIO
    TITLE "31:cjc023_4171"
    INDEX 01 07:37:12
  TRACK 353 AUDIO
    TITLE "0:"
    INDEX 01 07:39:48
  TRACK 354 AUDIO
    TITLE "28:cjc023_4172"
    INDEX 01 07:40:46
  TRACK 355 AUDIO
    TITLE "0:"
    INDEX 01 07:42:07
  TRACK 356 AUDIO
    TITLE "29:cjc023_4173"
    INDEX 01 07:42:53
  TRACK 357 AUDIO
    TITLE "0:"
    INDEX 01 07:45:10
  TRACK 358 AUDIO
    TITLE "30:cjc023_4174"
    INDEX 01 07:45:33
  TRACK 359 AUDIO
    TITLE "0:"
    INDEX 01 07:48:12
  TRACK 360 AUDIO
    TITLE "31:cjc023_4175"
    INDEX 01 07:48:34
  TRACK 361 AUDIO
    TITLE "0:"
    INDEX 01 07:51:12
  TRACK 362 AUDIO
    TITLE "28:cjc023_4176"
    INDEX 01 07:52:08
  TRACK 363 AUDIO
    TITLE "0:"
    INDEX 01 07:53:29
  TRACK 364 AUDIO
    TITLE "29:cjc023_4177"
    INDEX 01 07:54:01
  TRACK 365 AUDIO
    TITLE "0:"
    INDEX 01 07:56:35
  TRACK 366 AUDIO
    TITLE "30:cjc023_4178"
    INDEX 01 07:56:57
  TRACK 367 AUDIO
    TITLE "0:"
    INDEX 01 07:58:55
  TRACK 368 AUDIO
    TITLE "31:cjc023_4179"
    INDEX 01 07:59:04
  TRACK 369 AUDIO
    TITLE "0:"
    INDEX 01 08:01:03
  TRACK 370 AUDIO
    TITLE "28:cjc023_4180"
    INDEX 01 08:02:00
  TRACK 371 AUDIO
    TITLE "0:"
    INDEX 01 08:03:21
  TRACK 372 AUDIO
    TITLE "29:cjc023_4181"
    INDEX 01 08:03:68
  TRACK 373 AUDIO
    TITLE "0:"
    INDEX 01 08:05:65
  TRACK 374 AUDIO
    TITLE "30:cjc023_4182"
    INDEX 01 08:06:10
  TRACK 375 AUDIO
    TITLE "0:"
    INDEX 01 08:07:74
  TRACK 376 AUDIO
    TITLE "31:cjc023_4183"
    INDEX 01 08:08:21
  TRACK 377 AUDIO
    TITLE "0:"
    INDEX 01 08:10:08
  TRACK 378 AUDIO
    TITLE "28:cjc023_4184"
    INDEX 01 08:11:05
  TRACK 379 AUDIO
    TITLE "0:"
    INDEX 01 08:12:28
  TRACK 380 AUDIO
    TITLE "29:cjc023_4185"
    INDEX 01 08:13:02
  TRACK 381 AUDIO
    TITLE "0:"
    INDEX 01 08:15:30
  TRACK 382 AUDIO
    TITLE "30:cjc023_4186"
    INDEX 01 08:15:52
  TRACK 383 AUDIO
    TITLE "0:"
    INDEX 01 08:17:74
  TRACK 384 AUDIO
    TITLE "31:cjc023_4187"
    INDEX 01 08:18:23
  TRACK 385 AUDIO
    TITLE "0:"
    INDEX 01 08:20:43
  TRACK 386 AUDIO
    TITLE "28:cjc023_4188"
    INDEX 01 08:21:43
  TRACK 387 AUDIO
    TITLE "0:"
    INDEX 01 08:22:68
  TRACK 388 AUDIO
    TITLE "29:cjc023_4189"
    INDEX 01 08:23:38
  TRACK 389 AUDIO
    TITLE "0:"
    INDEX 01 08:26:17
  TRACK 390 AUDIO
    TITLE "30:cjc023_4190"
    INDEX 01 08:26:38
  TRACK 391 AUDIO
    TITLE "0:"
    INDEX 01 08:29:60
  TRACK 392 AUDIO
    TITLE "31:cjc023_4191"
    INDEX 01 08:30:08
  TRACK 393 AUDIO
    TITLE "0:"
    INDEX 01 08:33:30
  TRACK 394 AUDIO
    TITLE "28:cjc023_4192"
    INDEX 01 08:34:28
  TRACK 395 AUDIO
    TITLE "0:"
    INDEX 01 08:35:33
  TRACK 396 AUDIO
    TITLE "29:cjc023_4193"
    INDEX 01 08:36:05
  TRACK 397 AUDIO
    TITLE "0:"
    INDEX 01 08:38:20
  TRACK 398 AUDIO
    TITLE "30:cjc023_4194"
    INDEX 01 08:38:45
  TRACK 399 AUDIO
    TITLE "0:"
    INDEX 01 08:40:44
  TRACK 400 AUDIO
    TITLE "31:cjc023_4195"
    INDEX 01 08:40:68
  TRACK 401 AUDIO
    TITLE "0:"
    INDEX 01 08:42:66
  TRACK 402 AUDIO
    TITLE "28:cjc023_4196"
    INDEX 01 08:43:62
  TRACK 403 AUDIO
    TITLE "0:"
    INDEX 01 08:45:00
  TRACK 404 AUDIO
    TITLE "29:cjc023_4197"
    INDEX 01 08:45:45
  TRACK 405 AUDIO
    TITLE "0:"
    INDEX 01 08:48:63
  TRACK 406 AUDIO
    TITLE "30:cjc023_4198"
    INDEX 01 08:49:10
  TRACK 407 AUDIO
    TITLE "0:"
    INDEX 01 08:52:51
  TRACK 408 AUDIO
    TITLE "31:cjc023_4199"
    INDEX 01 08:52:71
  TRACK 409 AUDIO
    TITLE "0:"
    INDEX 01 08:56:35
  TRACK 410 AUDIO
    TITLE "28:cjc023_4200"
    INDEX 01 08:57:31
  TRACK 411 AUDIO
    TITLE "0:"
    INDEX 01 08:58:30
  TRACK 412 AUDIO
    TITLE "29:cjc023_4201"
    INDEX 01 08:59:04
  TRACK 413 AUDIO
    TITLE "0:"
    INDEX 01 09:01:23
  TRACK 414 AUDIO
    TITLE "30:cjc023_4202"
    INDEX 01 09:01:46
  TRACK 415 AUDIO
    TITLE "0:"
    INDEX 01 09:03:65
  TRACK 416 AUDIO
    TITLE "31:cjc023_4203"
    INDEX 01 09:04:09
  TRACK 417 AUDIO
    TITLE "0:"
    INDEX 01 09:06:30
  TRACK 418 AUDIO
    TITLE "28:cjc023_4204"
    INDEX 01 09:07:25
  TRACK 419 AUDIO
    TITLE "0:"
    INDEX 01 09:08:38
  TRACK 420 AUDIO
    TITLE "29:cjc023_4205"
    INDEX 01 09:09:09
  TRACK 421 AUDIO
    TITLE "0:"
    INDEX 01 09:12:11
  TRACK 422 AUDIO
    TITLE "30:cjc023_4206"
    INDEX 01 09:12:32
  TRACK 423 AUDIO
    TITLE "0:"
    INDEX 01 09:14:43
  TRACK 424 AUDIO
    TITLE "31:cjc023_4207"
    INDEX 01 09:14:63
  TRACK 425 AUDIO
    TITLE "0:"
    INDEX 01 09:16:73
  TRACK 426 AUDIO
    TITLE "28:cjc023_4208"
    INDEX 01 09:17:69
  TRACK 427 AUDIO
    TITLE "0:"
    INDEX 01 09:18:72
  TRACK 428 AUDIO
    TITLE "29:cjc023_4209"
    INDEX 01 09:19:40
  TRACK 429 AUDIO
    TITLE "0:"
    INDEX 01 09:21:14
  TRACK 430 AUDIO
    TITLE "30:cjc023_4210"
    INDEX 01 09:21:33
  TRACK 431 AUDIO
    TITLE "0:"
    INDEX 01 09:22:72
  TRACK 432 AUDIO
    TITLE "31:cjc023_4211"
    INDEX 01 09:23:20
  TRACK 433 AUDIO
    TITLE "0:"
    INDEX 01 09:24:59
  TRACK 434 AUDIO
    TITLE "28:cjc023_4212"
    INDEX 01 09:25:58
  TRACK 435 AUDIO
    TITLE "0:"
    INDEX 01 09:26:66
  TRACK 436 AUDIO
    TITLE "29:cjc023_4213"
    INDEX 01 09:27:40
  TRACK 437 AUDIO
    TITLE "0:"
    INDEX 01 09:30:30
  TRACK 438 AUDIO
    TITLE "30:cjc023_4214"
    INDEX 01 09:30:52
  TRACK 439 AUDIO
    TITLE "0:"
    INDEX 01 09:33:09
  TRACK 440 AUDIO
    TITLE "31:cjc023_4215"
    INDEX 01 09:33:29
  TRACK 441 AUDIO
    TITLE "0:"
    INDEX 01 09:35:59
  TRACK 442 AUDIO
    TITLE "28:cjc023_4216"
    INDEX 01 09:36:52
  TRACK 443 AUDIO
    TITLE "0:"
    INDEX 01 09:37:66
  TRACK 444 AUDIO
    TITLE "29:cjc023_4217"
    INDEX 01 09:38:36
  TRACK 445 AUDIO
    TITLE "0:"
    INDEX 01 09:40:15
  TRACK 446 AUDIO
    TITLE "30:cjc023_4218"
    INDEX 01 09:40:38
  TRACK 447 AUDIO
    TITLE "0:"
    INDEX 01 09:42:49
  TRACK 448 AUDIO
    TITLE "31:cjc023_4219"
    INDEX 01 09:42:71
  TRACK 449 AUDIO
    TITLE "0:"
    INDEX 01 09:45:06
  TRACK 450 AUDIO
    TITLE "28:cjc023_4220"
    INDEX 01 09:46:06
  TRACK 451 AUDIO
    TITLE "0:"
    INDEX 01 09:47:23
  TRACK 452 AUDIO
    TITLE "29:cjc023_4221"
    INDEX 01 09:47:68
  TRACK 453 AUDIO
    TITLE "0:"
    INDEX 01 09:49:69
  TRACK 454 AUDIO
    TITLE "30:cjc023_4222"
    INDEX 01 09:50:15
  TRACK 455 AUDIO
    TITLE "0:"
    INDEX 01 09:51:72
  TRACK 456 AUDIO
    TITLE "31:cjc023_4223"
    INDEX 01 09:52:16
  TRACK 457 AUDIO
    TITLE "0:"
    INDEX 01 09:53:70
  TRACK 458 AUDIO
    TITLE "28:cjc023_4224"
    INDEX 01 09:54:66
  TRACK 459 AUDIO
    TITLE "0:"
    INDEX 01 09:56:06
  TRACK 460 AUDIO
    TITLE "29:cjc023_4225"
    INDEX 01 09:56:53
  TRACK 461 AUDIO
    TITLE "0:"
    INDEX 01 10:00:20
  TRACK 462 AUDIO
    TITLE "30:cjc023_4226"
    INDEX 01 10:00:39
  TRACK 463 AUDIO
    TITLE "0:"
    INDEX 01 10:03:12
  TRACK 464 AUDIO
    TITLE "31:cjc023_4227"
    INDEX 01 10:03:32
  TRACK 465 AUDIO
    TITLE "0:"
    INDEX 01 10:06:05
  TRACK 466 AUDIO
    TITLE "28:cjc023_4228"
    INDEX 01 10:07:00
  TRACK 467 AUDIO
    TITLE "0:"
    INDEX 01 10:08:25
  TRACK 468 AUDIO
    TITLE "29:cjc023_4229"
    INDEX 01 10:08:70
  TRACK 469 AUDIO
    TITLE "0:"
    INDEX 01 10:10:61
  TRACK 470 AUDIO
    TITLE "30:cjc023_4230"
    INDEX 01 10:11:08
  TRACK 471 AUDIO
    TITLE "0:"
    INDEX 01 10:13:01
  TRACK 472 AUDIO
    TITLE "31:cjc023_4231"
    INDEX 01 10:13:22
  TRACK 473 AUDIO
    TITLE "0:"
    INDEX 01 10:15:15
  TRACK 474 AUDIO
    TITLE "28:cjc023_4232"
    INDEX 01 10:16:13
  TRACK 475 AUDIO
    TITLE "0:"
    INDEX 01 10:17:20
  TRACK 476 AUDIO
    TITLE "29:cjc023_4233"
    INDEX 01 10:18:00
  TRACK 477 AUDIO
    TITLE "0:"
    INDEX 01 10:19:70
  TRACK 478 AUDIO
    TITLE "30:cjc023_4234"
    INDEX 01 10:20:14
  TRACK 479 AUDIO
    TITLE "0:"
    INDEX 01 10:22:15
  TRACK 480 AUDIO
    TITLE "31:cjc023_4235"
    INDEX 01 10:22:35
  TRACK 481 AUDIO
    TITLE "0:"
    INDEX 01 10:24:34
  TRACK 482 AUDIO
    TITLE "28:cjc023_4236"
    INDEX 01 10:25:29
  TRACK 483 AUDIO
    TITLE "0:"
    INDEX 01 10:26:42
  TRACK 484 AUDIO
    TITLE "29:cjc023_4237"
    INDEX 01 10:27:13
  TRACK 485 AUDIO
    TITLE "0:"
    INDEX 01 10:29:06
  TRACK 486 AUDIO
    TITLE "30:cjc023_4238"
    INDEX 01 10:29:27
  TRACK 487 AUDIO
    TITLE "0:"
    INDEX 01 10:31:18
  TRACK 488 AUDIO
    TITLE "31:cjc023_4239"
    INDEX 01 10:31:46
  TRACK 489 AUDIO
    TITLE "0:"
    INDEX 01 10:33:37
  TRACK 490 AUDIO
    TITLE "28:cjc023_4240"
    INDEX 01 10:34:38
  TRACK 491 AUDIO
    TITLE "0:"
    INDEX 01 10:35:53
  TRACK 492 AUDIO
    TITLE "29:cjc023_4241"
    INDEX 01 10:36:27
  TRACK 493 AUDIO
    TITLE "0:"
    INDEX 01 10:39:12
  TRACK 494 AUDIO
    TITLE "30:cjc023_4242"
    INDEX 01 10:39:45
  TRACK 495 AUDIO
    TITLE "0:"
    INDEX 01 10:42:34
  TRACK 496 AUDIO
    TITLE "31:cjc023_4243"
    INDEX 01 10:42:65
  TRACK 497 AUDIO
    TITLE "0:"
    INDEX 01 10:45:54
  TRACK 498 AUDIO
    TITLE "28:cjc023_4244"
    INDEX 01 10:46:51
  TRACK 499 AUDIO
    TITLE "0:"
    INDEX 01 10:47:64
  TRACK 500 AUDIO
    TITLE "29:cjc023_4245"
    INDEX 01 10:48:36
  TRACK 501 AUDIO
    TITLE "0:"
    INDEX 01 10:49:71
  TRACK 502 AUDIO
    TITLE "30:cjc023_4246"
    INDEX 01 10:50:18
  TRACK 503 AUDIO
    TITLE "0:"
    INDEX 01 10:52:09
  TRACK 504 AUDIO
    TITLE "31:cjc023_4247"
    INDEX 01 10:52:30
  TRACK 505 AUDIO
    TITLE "0:"
    INDEX 01 10:54:21
  TRACK 506 AUDIO
    TITLE "28:cjc023_4248"
    INDEX 01 10:55:19
  TRACK 507 AUDIO
    TITLE "0:"
    INDEX 01 10:56:26
  TRACK 508 AUDIO
    TITLE "29:cjc023_4249"
    INDEX 01 10:57:00
  TRACK 509 AUDIO
    TITLE "0:"
    INDEX 01 10:58:29
  TRACK 510 AUDIO
    TITLE "30:cjc023_4250"
    INDEX 01 10:58:52
  TRACK 511 AUDIO
    TITLE "0:"
    INDEX 01 11:00:39
  TRACK 512 AUDIO
    TITLE "31:cjc023_4251"
    INDEX 01 11:00:61
  TRACK 513 AUDIO
    TITLE "0:"
    INDEX 01 11:02:46
  TRACK 514 AUDIO
    TITLE "28:cjc023_4252"
    INDEX 01 11:03:44
  TRACK 515 AUDIO
    TITLE "0:"
    INDEX 01 11:04:61
  TRACK 516 AUDIO
    TITLE "29:cjc023_4253"
    INDEX 01 11:05:31
  TRACK 517 AUDIO
    TITLE "0:"
    INDEX 01 11:07:61
  TRACK 518 AUDIO
    TITLE "30:cjc023_4254"
    INDEX 01 11:08:08
  TRACK 519 AUDIO
    TITLE "0:"
    INDEX 01 11:10:30
  TRACK 520 AUDIO
    TITLE "31:cjc023_4255"
    INDEX 01 11:10:54
  TRACK 521 AUDIO
    TITLE "0:"
    INDEX 01 11:13:01
  TRACK 522 AUDIO
    TITLE "28:cjc023_4256"
    INDEX 01 11:13:73
  TRACK 523 AUDIO
    TITLE "0:"
    INDEX 01 11:15:14
  TRACK 524 AUDIO
    TITLE "29:cjc023_4257"
    INDEX 01 11:15:63
  TRACK 525 AUDIO
    TITLE "0:"
    INDEX 01 11:18:69
  TRACK 526 AUDIO
    TITLE "30:cjc023_4258"
    INDEX 01 11:19:17
  TRACK 527 AUDIO
    TITLE "0:"
    INDEX 01 11:22:25
  TRACK 528 AUDIO
    TITLE "31:cjc023_4259"
    INDEX 01 11:22:45
  TRACK 529 AUDIO
    TITLE "0:"
    INDEX 01 11:25:51
  TRACK 530 AUDIO
    TITLE "28:cjc023_4260"
    INDEX 01 11:26:58
  TRACK 531 AUDIO
    TITLE "0:"
    INDEX 01 11:28:00
  TRACK 532 AUDIO
    TITLE "29:cjc023_4261"
    INDEX 01 11:28:46
  TRACK 533 AUDIO
    TITLE "0:"
    INDEX 01 11:30:52
  TRACK 534 AUDIO
    TITLE "30:cjc023_4262"
    INDEX 01 11:31:01
  TRACK 535 AUDIO
    TITLE "0:"
    INDEX 01 11:32:73
  TRACK 536 AUDIO
    TITLE "31:cjc023_4263"
    INDEX 01 11:33:19
  TRACK 537 AUDIO
    TITLE "0:"
    INDEX 01 11:35:18
  TRACK 538 AUDIO
    TITLE "28:cjc023_4264"
    INDEX 01 11:36:16
  TRACK 539 AUDIO
    TITLE "0:"
    INDEX 01 11:37:45
  TRACK 540 AUDIO
    TITLE "29:cjc023_4265"
    INDEX 01 11:38:18
  TRACK 541 AUDIO
    TITLE "0:"
    INDEX 01 11:40:25
  TRACK 542 AUDIO
    TITLE "30:cjc023_4266"
    INDEX 01 11:40:55
  TRACK 543 AUDIO
    TITLE "0:"
    INDEX 01 11:42:65
  TRACK 544 AUDIO
    TITLE "31:cjc023_4267"
    INDEX 01 11:43:18
  TRACK 545 AUDIO
    TITLE "0:"
    INDEX 01 11:45:28
  TRACK 546 AUDIO
    TITLE "28:cjc023_4268"
    INDEX 01 11:46:26
  TRACK 547 AUDIO
    TITLE "0:"
    INDEX 01 11:47:33
  TRACK 548 AUDIO
    TITLE "29:cjc023_4269"
    INDEX 01 11:48:03
  TRACK 549 AUDIO
    TITLE "0:"
    INDEX 01 11:49:63
  TRACK 550 AUDIO
    TITLE "30:cjc023_4270"
    INDEX 01 11:50:10
  TRACK 551 AUDIO
    TITLE "0:"
    INDEX 01 11:51:74
  TRACK 552 AUDIO
    TITLE "31:cjc023_4271"
    INDEX 01 11:52:21
  TRACK 553 AUDIO
    TITLE "0:"
    INDEX 01 11:54:08
  TRACK 554 AUDIO
    TITLE "28:cjc023_4272"
    INDEX 01 11:55:07
  TRACK 555 AUDIO
    TITLE "0:"
    INDEX 01 11:56:24
  TRACK 556 AUDIO
    TITLE "29:cjc023_4273"
    INDEX 01 11:56:71
  TRACK 557 AUDIO
    TITLE "0:"
    INDEX 01 11:59:25
  TRACK 558 AUDIO
    TITLE "30:cjc023_4274"
    INDEX 01 11:59:46
  TRACK 559 AUDIO
    TITLE "0:"
    INDEX 01 12:01:74
  TRACK 560 AUDIO
    TITLE "31:cjc023_4275"
    INDEX 01 12:02:23
  TRACK 561 AUDIO
    TITLE "0:"
    INDEX 01 12:04:51
  TRACK 562 AUDIO
    TITLE "28:cjc023_4276"
    INDEX 01 12:05:51
  TRACK 563 AUDIO
    TITLE "0:"
    INDEX 01 12:06:70
  TRACK 564 AUDIO
    TITLE "29:cjc023_4277"
    INDEX 01 12:07:44
  TRACK 565 AUDIO
    TITLE "0:"
    INDEX 01 12:10:46
  TRACK 566 AUDIO
    TITLE "30:cjc023_4278"
    INDEX 01 12:10:67
  TRACK 567 AUDIO
    TITLE "0:"
    INDEX 01 12:13:40
  TRACK 568 AUDIO
    TITLE "31:cjc023_4279"
    INDEX 01 12:13:64
  TRACK 569 AUDIO
    TITLE "0:"
    INDEX 01 12:16:35
  TRACK 570 AUDIO
    TITLE "28:cjc023_4280"
    INDEX 01 12:17:30
  TRACK 571 AUDIO
    TITLE "0:"
    INDEX 01 12:18:49
  TRACK 572 AUDIO
    TITLE "29:cjc023_4281"
    INDEX 01 12:19:31
  TRACK 573 AUDIO
    TITLE "0:"
    INDEX 01 12:22:16
  TRACK 574 AUDIO
    TITLE "30:cjc023_4282"
    INDEX 01 12:22:33
  TRACK 575 AUDIO
    TITLE "0:"
    INDEX 01 12:24:52
  TRACK 576 AUDIO
    TITLE "31:cjc023_4283"
    INDEX 01 12:24:68
  TRACK 577 AUDIO
    TITLE "0:"
    INDEX 01 12:27:13
  TRACK 578 AUDIO
    TITLE "28:cjc023_4284"
    INDEX 01 12:28:09
  TRACK 579 AUDIO
    TITLE "0:"
    INDEX 01 12:29:18
  TRACK 580 AUDIO
    TITLE "29:cjc023_4285"
    INDEX 01 12:29:65
  TRACK 581 AUDIO
    TITLE "0:"
    INDEX 01 12:34:01
  TRACK 582 AUDIO
    TITLE "30:cjc023_4286"
    INDEX 01 12:34:23
  TRACK 583 AUDIO
    TITLE "0:"
    INDEX 01 12:37:47
  TRACK 584 AUDIO
    TITLE "31:cjc023_4287"
    INDEX 01 12:37:68
  TRACK 585 AUDIO
    TITLE "0:"
    INDEX 01 12:41:17
  TRACK 586 AUDIO
    TITLE "28:cjc023_4288"
    INDEX 01 12:42:13
  TRACK 587 AUDIO
    TITLE "0:"
    INDEX 01 12:43:18
  TRACK 588 AUDIO
    TITLE "29:cjc023_4289"
    INDEX 01 12:43:65
  TRACK 589 AUDIO
    TITLE "0:"
    INDEX 01 12:49:19
  TRACK 590 AUDIO
    TITLE "30:cjc023_4290"
    INDEX 01 12:49:42
  TRACK 591 AUDIO
    TITLE "0:"
    INDEX 01 12:52:64
  TRACK 592 AUDIO
    TITLE "31:cjc023_4291"
    INDEX 01 12:53:10
  TRACK 593 AUDIO
    TITLE "0:"
    INDEX 01 12:56:32
  TRACK 594 AUDIO
    TITLE "28:cjc023_4292"
    INDEX 01 12:57:28
  TRACK 595 AUDIO
    TITLE "0:"
    INDEX 01 12:58:51
  TRACK 596 AUDIO
    TITLE "29:cjc023_4293"
    INDEX 01 12:59:23
  TRACK 597 AUDIO
    TITLE "0:"
    INDEX 01 13:00:69
  TRACK 598 AUDIO
    TITLE "30:cjc023_4294"
    INDEX 01 13:01:18
  TRACK 599 AUDIO
    TITLE "0:"
    INDEX 01 13:03:09
  TRACK 600 AUDIO
    TITLE "31:cjc023_4295"
    INDEX 01 13:03:38
  TRACK 601 AUDIO
    TITLE "0:"
    INDEX 01 13:05:29
  TRACK 602 AUDIO
    TITLE "28:cjc023_4296"
    INDEX 01 13:06:33
  TRACK 603 AUDIO
    TITLE "0:"
    INDEX 01 13:07:54
  TRACK 604 AUDIO
    TITLE "29:cjc023_4297"
    INDEX 01 13:08:22
  TRACK 605 AUDIO
    TITLE "0:"
    INDEX 01 13:09:57
  TRACK 606 AUDIO
    TITLE "30:cjc023_4298"
    INDEX 01 13:10:01
  TRACK 607 AUDIO
    TITLE "0:"
    INDEX 01 13:12:16
  TRACK 608 AUDIO
    TITLE "31:cjc023_4299"
    INDEX 01 13:12:33
  TRACK 609 AUDIO
    TITLE "0:"
    INDEX 01 13:14:48
  TRACK 610 AUDIO
    TITLE "28:cjc023_4300"
    INDEX 01 13:15:43
  TRACK 611 AUDIO
    TITLE "0:"
    INDEX 01 13:16:49
  TRACK 612 AUDIO
    TITLE "29:cjc023_4301"
    INDEX 01 13:17:21
  TRACK 613 AUDIO
    TITLE "0:"
    INDEX 01 13:21:19
  TRACK 614 AUDIO
    TITLE "30:cjc023_4302"
    INDEX 01 13:21:40
  TRACK 615 AUDIO
    TITLE "0:"
    INDEX 01 13:24:15
  TRACK 616 AUDIO
    TITLE "31:cjc023_4303"
    INDEX 01 13:24:36
  TRACK 617 AUDIO
    TITLE "0:"
    INDEX 01 13:27:09
  TRACK 618 AUDIO
    TITLE "28:cjc023_4304"
    INDEX 01 13:28:05
  TRACK 619 AUDIO
    TITLE "0:"
    INDEX 01 13:29:36
  TRACK 620 AUDIO
    TITLE "29:cjc023_4305"
    INDEX 01 13:30:06
  TRACK 621 AUDIO
    TITLE "0:"
    INDEX 01 13:32:32
  TRACK 622 AUDIO
    TITLE "30:cjc023_4306"
    INDEX 01 13:32:56
  TRACK 623 AUDIO
    TITLE "0:"
    INDEX 01 13:35:30
  TRACK 624 AUDIO
    TITLE "31:cjc023_4307"
    INDEX 01 13:35:52
  TRACK 625 AUDIO
    TITLE "0:"
    INDEX 01 13:38:29
  TRACK 626 AUDIO
    TITLE "28:cjc023_4308"
    INDEX 01 13:39:26
  TRACK 627 AUDIO
    TITLE "0:"
    INDEX 01 13:40:45
  TRACK 628 AUDIO
    TITLE "29:cjc023_4309"
    INDEX 01 13:41:19
  TRACK 629 AUDIO
    TITLE "0:"
    INDEX 01 13:43:03
  TRACK 630 AUDIO
    TITLE "30:cjc023_4310"
    INDEX 01 13:43:26
  TRACK 631 AUDIO
    TITLE "0:"
    INDEX 01 13:45:23
  TRACK 632 AUDIO
    TITLE "31:cjc023_4311"
    INDEX 01 13:45:43
  TRACK 633 AUDIO
    TITLE "0:"
    INDEX 01 13:47:39
  TRACK 634 AUDIO
    TITLE "28:cjc023_4312"
    INDEX 01 13:48:37
  TRACK 635 AUDIO
    TITLE "0:"
    INDEX 01 13:49:40
  TRACK 636 AUDIO
    TITLE "29:cjc023_4313"
    INDEX 01 13:50:10
  TRACK 637 AUDIO
    TITLE "0:"
    INDEX 01 13:52:09
  TRACK 638 AUDIO
    TITLE "30:cjc023_4314"
    INDEX 01 13:52:35
  TRACK 639 AUDIO
    TITLE "0:"
    INDEX 01 13:53:73
  TRACK 640 AUDIO
    TITLE "31:cjc023_4315"
    INDEX 01 13:54:20
  TRACK 641 AUDIO
    TITLE "0:"
    INDEX 01 13:55:59
  TRACK 642 AUDIO
    TITLE "28:cjc023_4316"
    INDEX 01 13:56:56
  TRACK 643 AUDIO
    TITLE "0:"
    INDEX 01 13:57:71
  TRACK 644 AUDIO
    TITLE "29:cjc023_4317"
    INDEX 01 13:58:43
  TRACK 645 AUDIO
    TITLE "0:"
    INDEX 01 14:00:40
  TRACK 646 AUDIO
    TITLE "30:cjc023_4318"
    INDEX 01 14:00:64
  TRACK 647 AUDIO
    TITLE "0:"
    INDEX 01 14:02:74
  TRACK 648 AUDIO
    TITLE "31:cjc023_4319"
    INDEX 01 14:03:23
  TRACK 649 AUDIO
    TITLE "0:"
    INDEX 01 14:05:32
  TRACK 650 AUDIO
    TITLE "28:cjc023_4320"
    INDEX 01 14:06:27
  TRACK 651 AUDIO
    TITLE "0:"
    INDEX 01 14:07:36
  TRACK 652 AUDIO
    TITLE "29:cjc023_4321"
    INDEX 01 14:08:10
  TRACK 653 AUDIO
    TITLE "0:"
    INDEX 01 14:11:63
  TRACK 654 AUDIO
    TITLE "30:cjc023_4322"
    INDEX 01 14:12:08
  TRACK 655 AUDIO
    TITLE "0:"
    INDEX 01 14:15:22
  TRACK 656 AUDIO
    TITLE "31:cjc023_4323"
    INDEX 01 14:15:46
  TRACK 657 AUDIO
    TITLE "0:"
    INDEX 01 14:18:60
  TRACK 658 AUDIO
    TITLE "28:cjc023_4324"
    INDEX 01 14:19:59
  TRACK 659 AUDIO
    TITLE "0:"
    INDEX 01 14:20:64
  TRACK 660 AUDIO
    TITLE "29:cjc023_4325"
    INDEX 01 14:21:38
  TRACK 661 AUDIO
    TITLE "0:"
    INDEX 01 14:23:67
  TRACK 662 AUDIO
    TITLE "30:cjc023_4326"
    INDEX 01 14:24:09
  TRACK 663 AUDIO
    TITLE "0:"
    INDEX 01 14:26:34
  TRACK 664 AUDIO
    TITLE "31:cjc023_4327"
    INDEX 01 14:26:57
  TRACK 665 AUDIO
    TITLE "0:"
    INDEX 01 14:29:07
  TRACK 666 AUDIO
    TITLE "28:cjc023_4328"
    INDEX 01 14:30:06
  TRACK 667 AUDIO
    TITLE "0:"
    INDEX 01 14:31:15
  TRACK 668 AUDIO
    TITLE "29:cjc023_4329"
    INDEX 01 14:31:62
  TRACK 669 AUDIO
    TITLE "0:"
    INDEX 01 14:35:07
  TRACK 670 AUDIO
    TITLE "30:cjc023_4330"
    INDEX 01 14:35:29
  TRACK 671 AUDIO
    TITLE "0:"
    INDEX 01 14:38:25
  TRACK 672 AUDIO
    TITLE "31:cjc023_4331"
    INDEX 01 14:38:49
  TRACK 673 AUDIO
    TITLE "0:"
    INDEX 01 14:41:45
  TRACK 674 AUDIO
    TITLE "28:cjc023_4332"
    INDEX 01 14:42:46
  TRACK 675 AUDIO
    TITLE "0:"
    INDEX 01 14:43:63
  TRACK 676 AUDIO
    TITLE "29:cjc023_4333"
    INDEX 01 14:44:36
  TRACK 677 AUDIO
    TITLE "0:"
    INDEX 01 14:46:72
  TRACK 678 AUDIO
    TITLE "30:cjc023_4334"
    INDEX 01 14:47:20
  TRACK 679 AUDIO
    TITLE "0:"
    INDEX 01 14:49:74
  TRACK 680 AUDIO
    TITLE "31:cjc023_4335"
    INDEX 01 14:50:22
  TRACK 681 AUDIO
    TITLE "0:"
    INDEX 01 14:53:01
  TRACK 682 AUDIO
    TITLE "28:cjc023_4336"
    INDEX 01 14:53:74
  TRACK 683 AUDIO
    TITLE "0:"
    INDEX 01 14:55:02
  TRACK 684 AUDIO
    TITLE "29:cjc023_4337"
    INDEX 01 14:55:47
  TRACK 685 AUDIO
    TITLE "0:"
    INDEX 01 14:59:53
  TRACK 686 AUDIO
    TITLE "30:cjc023_4338"
    INDEX 01 14:59:72
  TRACK 687 AUDIO
    TITLE "0:"
    INDEX 01 15:02:55
  TRACK 688 AUDIO
    TITLE "31:cjc023_4339"
    INDEX 01 15:03:03
  TRACK 689 AUDIO
    TITLE "0:"
    INDEX 01 15:05:59
  TRACK 690 AUDIO
    TITLE "28:cjc023_4340"
    INDEX 01 15:06:59
  TRACK 691 AUDIO
    TITLE "0:"
    INDEX 01 15:07:70
  TRACK 692 AUDIO
    TITLE "29:cjc023_4341"
    INDEX 01 15:08:42
  TRACK 693 AUDIO
    TITLE "0:"
    INDEX 01 15:10:04
  TRACK 694 AUDIO
    TITLE "30:cjc023_4342"
    INDEX 01 15:10:27
  TRACK 695 AUDIO
    TITLE "0:"
    INDEX 01 15:11:66
  TRACK 696 AUDIO
    TITLE "31:cjc023_4343"
    INDEX 01 15:12:14
  TRACK 697 AUDIO
    TITLE "0:"
    INDEX 01 15:13:55
  TRACK 698 AUDIO
    TITLE "28:cjc023_4344"
    INDEX 01 15:14:54
  TRACK 699 AUDIO
    TITLE "0:"
    INDEX 01 15:15:62
  TRACK 700 AUDIO
    TITLE "29:cjc023_4345"
    INDEX 01 15:16:34
  TRACK 701 AUDIO
    TITLE "0:"
    INDEX 01 15:18:05
  TRACK 702 AUDIO
    TITLE "30:cjc023_4346"
    INDEX 01 15:18:34
  TRACK 703 AUDIO
    TITLE "0:"
    INDEX 01 15:19:71
  TRACK 704 AUDIO
    TITLE "31:cjc023_4347"
    INDEX 01 15:20:27
  TRACK 705 AUDIO
    TITLE "0:"
    INDEX 01 15:21:64
  TRACK 706 AUDIO
    TITLE "28:cjc023_4348"
    INDEX 01 15:22:64
  TRACK 707 AUDIO
    TITLE "0:"
    INDEX 01 15:24:25
  TRACK 708 AUDIO
    TITLE "29:cjc023_4349"
    INDEX 01 15:24:70
  TRACK 709 AUDIO
    TITLE "0:"
    INDEX 01 15:26:54
  TRACK 710 AUDIO
    TITLE "30:cjc023_4350"
    INDEX 01 15:27:00
  TRACK 711 AUDIO
    TITLE "0:"
    INDEX 01 15:29:44
  TRACK 712 AUDIO
    TITLE "31:cjc023_4351"
    INDEX 01 15:29:66
  TRACK 713 AUDIO
    TITLE "0:"
    INDEX 01 15:32:35
  TRACK 714 AUDIO
    TITLE "28:cjc023_4352"
    INDEX 01 15:33:30
  TRACK 715 AUDIO
    TITLE "0:"
    INDEX 01 15:34:61
  TRACK 716 AUDIO
    TITLE "29:cjc023_4353"
    INDEX 01 15:35:37
  TRACK 717 AUDIO
    TITLE "0:"
    INDEX 01 15:37:32
  TRACK 718 AUDIO
    TITLE "30:cjc023_4354"
    INDEX 01 15:37:55
  TRACK 719 AUDIO
    TITLE "0:"
    INDEX 01 15:39:60
  TRACK 720 AUDIO
    TITLE "31:cjc023_4355"
    INDEX 01 15:40:05
  TRACK 721 AUDIO
    TITLE "0:"
    INDEX 01 15:42:09
  TRACK 722 AUDIO
    TITLE "28:cjc023_4356"
    INDEX 01 15:43:05
  TRACK 723 AUDIO
    TITLE "0:"
    INDEX 01 15:44:30
  TRACK 724 AUDIO
    TITLE "29:cjc023_4357"
    INDEX 01 15:44:73
  TRACK 725 AUDIO
    TITLE "0:"
    INDEX 01 15:47:20
  TRACK 726 AUDIO
    TITLE "30:cjc023_4358"
    INDEX 01 15:47:42
  TRACK 727 AUDIO
    TITLE "0:"
    INDEX 01 15:49:74
  TRACK 728 AUDIO
    TITLE "31:cjc023_4359"
    INDEX 01 15:50:21
  TRACK 729 AUDIO
    TITLE "0:"
    INDEX 01 15:52:53
  TRACK 730 AUDIO
    TITLE "28:cjc023_4360"
    INDEX 01 15:53:48
  TRACK 731 AUDIO
    TITLE "0:"
    INDEX 01 15:54:73
  TRACK 732 AUDIO
    TITLE "29:cjc023_4361"
    INDEX 01 15:55:47
  TRACK 733 AUDIO
    TITLE "0:"
    INDEX 01 15:58:05
  TRACK 734 AUDIO
    TITLE "30:cjc023_4362"
    INDEX 01 15:58:26
  TRACK 735 AUDIO
    TITLE "0:"
    INDEX 01 16:00:56
  TRACK 736 AUDIO
    TITLE "31:cjc023_4363"
    INDEX 01 16:01:03
  TRACK 737 AUDIO
    TITLE "0:"
    INDEX 01 16:03:33
  TRACK 738 AUDIO
    TITLE "28:cjc023_4364"
    INDEX 01 16:04:31
  TRACK 739 AUDIO
    TITLE "0:"
    INDEX 01 16:05:32
  TRACK 740 AUDIO
    TITLE "29:cjc023_4365"
    INDEX 01 16:06:02
  TRACK 741 AUDIO
    TITLE "0:"
    INDEX 01 16:08:60
  TRACK 742 AUDIO
    TITLE "30:cjc023_4366"
    INDEX 01 16:09:08
  TRACK 743 AUDIO
    TITLE "0:"
    INDEX 01 16:11:39
  TRACK 744 AUDIO
    TITLE "31:cjc023_4367"
    INDEX 01 16:11:56
  TRACK 745 AUDIO
    TITLE "0:"
    INDEX 01 16:14:13
  TRACK 746 AUDIO
    TITLE "28:cjc023_4368"
    INDEX 01 16:15:07
  TRACK 747 AUDIO
    TITLE "0:"
    INDEX 01 16:16:34
  TRACK 748 AUDIO
    TITLE "29:cjc023_4369"
    INDEX 01 16:17:06
  TRACK 749 AUDIO
    TITLE "0:"
    INDEX 01 16:20:24
  TRACK 750 AUDIO
    TITLE "30:cjc023_4370"
    INDEX 01 16:20:49
  TRACK 751 AUDIO
    TITLE "0:"
    INDEX 01 16:23:08
  TRACK 752 AUDIO
    TITLE "31:cjc023_4371"
    INDEX 01 16:23:32
  TRACK 753 AUDIO
    TITLE "0:"
    INDEX 01 16:25:66
  TRACK 754 AUDIO
    TITLE "28:cjc023_4372"
    INDEX 01 16:26:60
  TRACK 755 AUDIO
    TITLE "0:"
    INDEX 01 16:27:71
  TRACK 756 AUDIO
    TITLE "29:cjc023_4373"
    INDEX 01 16:28:41
  TRACK 757 AUDIO
    TITLE "0:"
    INDEX 01 16:30:22
  TRACK 758 AUDIO
    TITLE "30:cjc023_4374"
    INDEX 01 16:30:42
  TRACK 759 AUDIO
    TITLE "0:"
    INDEX 01 16:32:50
  TRACK 760 AUDIO
    TITLE "31:cjc023_4375"
    INDEX 01 16:32:68
  TRACK 761 AUDIO
    TITLE "0:"
    INDEX 01 16:35:04
  TRACK 762 AUDIO
    TITLE "28:cjc023_4376"
    INDEX 01 16:35:72
  TRACK 763 AUDIO
    TITLE "0:"
    INDEX 01 16:37:20
  TRACK 764 AUDIO
    TITLE "29:cjc023_4377"
    INDEX 01 16:37:65
  TRACK 765 AUDIO
    TITLE "0:"
    INDEX 01 16:39:45
  TRACK 766 AUDIO
    TITLE "30:cjc023_4378"
    INDEX 01 16:39:72
  TRACK 767 AUDIO
    TITLE "0:"
    INDEX 01 16:41:59
  TRACK 768 AUDIO
    TITLE "31:cjc023_4379"
    INDEX 01 16:42:12
  TRACK 769 AUDIO
    TITLE "0:"
    INDEX 01 16:43:74
  TRACK 770 AUDIO
    TITLE "28:cjc023_4380"
    INDEX 01 16:44:71
  TRACK 771 AUDIO
    TITLE "0:"
    INDEX 01 16:46:02
  TRACK 772 AUDIO
    TITLE "29:cjc023_4381"
    INDEX 01 16:46:54
  TRACK 773 AUDIO
    TITLE "0:"
    INDEX 01 16:48:36
  TRACK 774 AUDIO
    TITLE "30:cjc023_4382"
    INDEX 01 16:48:57
  TRACK 775 AUDIO
    TITLE "0:"
    INDEX 01 16:50:74
  TRACK 776 AUDIO
    TITLE "31:cjc023_4383"
    INDEX 01 16:51:18
  TRACK 777 AUDIO
    TITLE "0:"
    INDEX 01 16:53:33
  TRACK 778 AUDIO
    TITLE "28:cjc023_4384"
    INDEX 01 16:54:29
  TRACK 779 AUDIO
    TITLE "0:"
    INDEX 01 16:55:36
  TRACK 780 AUDIO
    TITLE "29:cjc023_4385"
    INDEX 01 16:56:06
  TRACK 781 AUDIO
    TITLE "0:"
    INDEX 01 16:58:11
  TRACK 782 AUDIO
    TITLE "30:cjc023_4386"
    INDEX 01 16:58:32
  TRACK 783 AUDIO
    TITLE "0:"
    INDEX 01 17:00:21
  TRACK 784 AUDIO
    TITLE "31:cjc023_4387"
    INDEX 01 17:00:41
  TRACK 785 AUDIO
    TITLE "0:"
    INDEX 01 17:02:26
  TRACK 786 AUDIO
    TITLE "28:cjc023_4388"
    INDEX 01 17:03:24
  TRACK 787 AUDIO
    TITLE "0:"
    INDEX 01 17:04:33
  TRACK 788 AUDIO
    TITLE "29:cjc023_4389"
    INDEX 01 17:05:03
  TRACK 789 AUDIO
    TITLE "0:"
    INDEX 01 17:07:23
  TRACK 790 AUDIO
    TITLE "30:cjc023_4390"
    INDEX 01 17:07:43
  TRACK 791 AUDIO
    TITLE "0:"
    INDEX 01 17:09:34
  TRACK 792 AUDIO
    TITLE "31:cjc023_4391"
    INDEX 01 17:09:57
  TRACK 793 AUDIO
    TITLE "0:"
    INDEX 01 17:11:49
  TRACK 794 AUDIO
    TITLE "28:cjc023_4392"
    INDEX 01 17:12:48
  TRACK 795 AUDIO
    TITLE "0:"
    INDEX 01 17:13:65
  TRACK 796 AUDIO
    TITLE "29:cjc023_4393"
    INDEX 01 17:14:39
  TRACK 797 AUDIO
    TITLE "0:"
    INDEX 01 17:16:32
  TRACK 798 AUDIO
    TITLE "30:cjc023_4394"
    INDEX 01 17:16:56
  TRACK 799 AUDIO
    TITLE "0:"
    INDEX 01 17:18:54
  TRACK 800 AUDIO
    TITLE "31:cjc023_4395"
    INDEX 01 17:18:74
  TRACK 801 AUDIO
    TITLE "0:"
    INDEX 01 17:20:73
